# xmcd CD database file
# Copyright (C) 1993-1998 Ti Kan
#
# Track frame offsets:
# 182
# 10647
# 21742
# 38202
# 49440
# 61610
# 77087
# 87770
# 97975
# 113587
# 125087
# 140630
# 157372
#
# Disc length: 2238 seconds
#
# Revision: 0
# Processed by: cddbd v1.4b41PL1 Copyright (c) Steve Scherf et al.
# Submitted via: inCDius 1.1b8
#
DISCID=ac08bc0d
DTITLE=Jane Hawley - As We Walk on Thin Ice
DYEAR=1900
DGENRE=
TTITLE0=Till It Satisfies Me
TTITLE1=I Jumped the Fence
TTITLE2=I Cried Last Night
TTITLE3=Saskatoon
TTITLE4=Can You See Me With Him
TTITLE5=Rhona-Lee
TTITLE6=You Turn Me On
TTITLE7=As We Walk on Thin Ice
TTITLE8=Mama's Waitin
TTITLE9=Cold As Stone
TTITLE10=Hotel Heart
TTITLE11=Yonge Street
TTITLE12=25 Years
EXTD=
EXTT0=
EXTT1=
EXTT2=
EXTT3=
EXTT4=
EXTT5=
EXTT6=
EXTT7=
EXTT8=
EXTT9=
EXTT10=
EXTT11=
EXTT12=
PLAYORDER=
